<svg width="334" height="165" viewBox="0 0 334 165" fill="none" xmlns="http://www.w3.org/2000/svg">
<path d="M333.276 125.531H105.551V164.631H333.276V125.531Z" fill="#1476C6"/>
<path d="M90.338 56.1435C90.2088 61.9503 89.514 68.0789 88.6297 71.7445C88.9478 65.4284 88.1901 56.5195 86.7349 49.5695C85.2812 42.6175 81.174 30.9961 77.8901 25.6255C74.8584 30.7415 71.1276 40.7895 69.1713 49.5055C67.2073 58.2289 67.1479 68.7741 67.1479 71.9388C66.6307 69.27 65.3229 59.7643 65.6948 50.2001C65.9984 42.3148 67.8432 34.2175 68.8557 30.4895C72.7063 18.0428 77.0703 10.0868 77.8901 8.82281C78.7104 10.0868 84.2057 19.8801 87.053 30.1761C89.8906 40.4721 90.4609 50.3308 90.338 56.1435V56.1435ZM77.953 100.6C76.2473 97.3784 73.5937 91.2575 73.3401 81.7919C73.2755 72.6331 76.9421 64.7951 78.014 63.1565C78.9656 64.7951 82.1218 71.6211 82.4978 80.97C82.7552 90.1211 79.7218 97.3159 77.953 100.6ZM91.3484 30.3015C87.8718 15.0762 79.1557 2.69481 77.953 0.672142C76.0584 3.51481 69.1041 14.4428 65.5697 26.5761C61.7115 40.0961 61.1458 52.0948 62.4765 63.9112C63.7994 75.7299 68.7921 87.8533 68.7921 87.8533C71.4458 94.2221 75.424 101.037 78.014 104.387C81.8041 99.4601 90.526 84.7632 93.2432 65.5528C94.7573 54.8779 94.8229 45.5295 91.3484 30.3015Z" fill="#1476C6"/>
<path d="M83.8557 107.935H57.414V125.682C57.436 125.656 57.4573 125.631 57.4797 125.608C63.7104 119.379 73.8125 119.379 80.0442 125.608C86.2734 131.837 86.2734 141.941 80.0442 148.17C80.0182 148.198 79.989 148.219 79.964 148.246C79.964 148.246 79.964 148.249 79.9609 148.251C79.9297 148.282 79.8973 148.306 79.8677 148.334C73.6562 154.504 65.5338 157.591 57.414 157.591C49.2598 157.591 41.1021 154.482 34.8792 148.258C23.914 137.294 22.6156 120.328 30.9734 107.935C32.101 106.262 33.401 104.671 34.8792 103.19C41.1021 96.9701 49.2598 93.8633 57.414 93.8633V51.2109C26.0713 51.2109 0.665039 76.619 0.665039 107.935C0.665039 139.276 26.0713 164.683 57.414 164.683C73.7552 164.683 88.476 157.771 98.8317 146.724V107.935H83.8557" fill="#1476C6"/>
<path d="M105.551 51.211H127.184V58.2453H116.893V107.922H105.551V51.211" fill="#1476C6"/>
<path d="M126.873 107.922H137.97L139.024 92.8505H144.374L145.426 107.922H156.528L150.61 51.211H132.788L126.873 107.922ZM139.429 86.6161L141.374 58.2406H142.025L143.966 86.6161H139.429Z" fill="#1476C6"/>
<path d="M171.437 88.0697V98.7505C171.437 100.209 172.569 100.615 173.217 100.615C174.275 100.615 175.001 99.7244 175.001 98.7505V85.5609C175.001 83.7776 174.676 81.8364 170.463 81.8364H165.847V75.5978H170.625C173.865 75.5978 175.001 74.8677 175.001 71.3838V60.1068C175.001 59.1358 174.275 58.2453 173.217 58.2453C172.569 58.2453 171.437 58.6494 171.437 60.1068V69.3573H160.095V61.3374C160.095 57.3666 160.58 51.211 168.519 51.211H177.923C185.867 51.211 186.349 57.3666 186.349 61.3374V70.412C186.349 76.5686 182.055 78.2713 178.653 78.1073V78.6765C186.269 78.5134 186.349 84.3464 186.349 86.3708V97.7958C186.349 101.764 185.867 107.922 177.923 107.922H168.519C160.58 107.922 160.095 101.764 160.095 97.7958V88.0697H171.437Z" fill="#1476C6"/>
<path d="M192.311 51.211H218.565V107.922H207.227V58.2453H203.657V107.922H192.311V51.211" fill="#1476C6"/>
<path d="M225.193 107.922H236.537V88.6396H243.017C250.959 88.6396 251.444 82.4812 251.444 78.5134V61.3374C251.444 57.3666 250.959 51.211 243.017 51.211H225.193V107.922ZM236.537 82.4046V58.2453H237.997C239.213 58.2453 240.104 59.2968 240.104 61.076V79.5677C240.104 81.35 239.213 82.4046 237.997 82.4046H236.537Z" fill="#1476C6"/>
<path d="M256.956 97.7958C256.956 101.764 257.443 107.922 265.383 107.922H274.781C282.719 107.922 283.208 101.764 283.208 97.7958V61.3374C283.208 57.3666 282.719 51.211 274.781 51.211H265.383C257.443 51.211 256.956 57.3666 256.956 61.3374V97.7958ZM271.864 98.7505C271.864 99.7244 271.137 100.615 270.084 100.615C269.433 100.615 268.3 100.209 268.3 98.7505V60.1068C268.3 58.6494 269.433 58.2453 270.084 58.2453C271.137 58.2453 271.864 59.1358 271.864 60.1068V98.7505" fill="#1476C6"/>
<path d="M318.541 51.211H333.286V107.922H321.942V72.3577H321.538L315.705 107.922H306.63L300.799 72.3577H300.39V107.922H289.049V51.211H303.793L311.166 91.0708L318.541 51.211" fill="#1476C6"/>
<path d="M141.678 152.248H145.372V133.232H151.024V152.248H152.232V161.53H146.71V156.694H136.026V133.232H141.678V152.248Z" fill="white"/>
<path d="M227.04 133.232V156.693H221.388V137.675H217.695V156.693H212.043V133.232H227.04" fill="white"/>
<path d="M302.695 147.412V149.601C302.695 154.927 300.278 157.248 295.05 157.248C289.855 157.248 287.404 154.962 287.404 149.57V139.341C287.404 135.651 289.691 132.71 295.05 132.71C300.343 132.71 302.695 135.716 302.695 139.375V140.976H297.043V138.852C297.043 137.611 295.866 137.023 294.984 137.023C294.036 137.023 293.056 137.546 293.056 138.755V150.451C293.056 152.216 293.807 152.935 294.984 152.935C296.194 152.935 297.043 152.281 297.043 150.516V147.412H302.695Z" fill="white"/>
</svg>
